<?xml version="1.0" encoding="utf-8"?>
<?xml-stylesheet type="text/xsl" href="rss1.xsl"?>
<rss version="2.0" xmlns:atom="http://www.w3.org/2005/Atom" xmlns:content="http://purl.org/rss/1.0/modules/content/" xmlns:dc="http://purl.org/dc/elements/1.1/" xmlns:media="http://search.yahoo.com/mrss/">
<channel>
 <title>Getty</title>
 <link>http://www.gettyimg.com/</link>
 <atom:link href="http://www.gettyimg.com/" rel="self" type="application/rss+xml" />

 
                <item>
                <title><![CDATA[【PRORES HD】Ariana Grande - Be Alright (DWT Visual) [ProRes]]]></title>
                <link><![CDATA[https://sharemania.us/threads/ariana-grande-be-alright-dwt-visual-prores.222932/]]></link>
                <description><![CDATA[<article>
<blockquote class="messageText SelectQuoteContainer ugc baseHtml">
<div style="text-align: left"><img src="http://imgfz.com/i/cQEgGN6.png" class="bbCodeImage LbImage" alt="[​IMG]" data-url="http://imgfz.com/i/cQEgGN6.png" style=""><br>
<br>
<img src="http://imgfz.com/i/DBJ73Kn.png" class="bbCodeImage LbImage" alt="[​IMG]" data-url="http://imgfz.com/i/DBJ73Kn.png" style=""><br>
<br>
<img src="http://imgfz.com/i/UgHR6cS.png" class="bbCodeImage LbImage" alt="[​IMG]" data-url="http://imgfz.com/i/UgHR6cS.png" style=""><br>
<br>
<img src="http://imgfz.com/i/0YAQ9TM.png" class="bbCodeImage LbImage" alt="[​IMG]" data-url="http://imgfz.com/i/0YAQ9TM.png" style=""><br>
<br>
​</div>
<div class="ToggleTriggerAnchor bbCodeSpoilerContainer">
<button type="button" class="button bbCodeSpoilerButton ToggleTrigger Tooltip JsOnly" data-target="> .SpoilerTarget"><span>Spoiler: <span class="SpoilerTitle">MediaInfo</span></span></button>
<div class="SpoilerTarget bbCodeSpoilerText">
<div class="bbCodeBlock bbCodeCode">
<div class="type">Code:</div>
<pre>General
                  :
Format                         : MPEG-4
Format profile                 : QuickTime
Codec ID                       : qt   2005.03 (qt  )
File size                      : 3.79 GiB
Duration                       : 3 min 20 s
Overall bit rate mode          : Variable
Overall bit rate               : 162 Mb/s
Frame rate                     : 25.000 FPS
Encoded date                   : 2023-06-02 14:20:29 UTC
Tagged date                    : 2023-06-02 14:21:50 UTC
Writing library                : Apple QuickTime
TIM                            : 00:00:00:00
TSC                            : 25
TSZ                            : 1

Video
ID                             : 1
Format                         : ProRes
Format version                 : Version 0
Format profile                 : 422 HQ
Codec ID                       : apch
Duration                       : 3 min 20 s
Bit rate mode                  : Variable
Bit rate                       : 161 Mb/s
Width                          : 2 350 pixels
Height                         : 1 000 pixels
Display aspect ratio           : 2.35:1
Frame rate mode                : Constant
Frame rate                     : 25.000 FPS
Color space                    : YUV
Chroma subsampling             : 4:2:2
Scan type                      : Progressive
Bits/(Pixel*Frame)             : 2.737
Stream size                    : 3.75 GiB (99%)
Writing library                : adb0
Language                       : English
Encoded date                   : 2023-06-02 14:20:29 UTC
Tagged date                    : 2023-06-02 14:20:29 UTC
Color primaries                : BT.709
Transfer characteristics       : BT.709
Matrix coefficients            : BT.709

Audio
ID                             : 2
Format                         : PCM
Format settings                : Little / Signed
Codec ID                       : sowt
Duration                       : 3 min 20 s
Bit rate mode                  : Constant
Bit rate                       : 1 536 kb/s
Channel(s)                     : 2 channels
Channel layout                 : L R
Sampling rate                  : 48.0 kHz
Bit depth                      : 16 bits
Stream size                    : 36.7 MiB (1%)
Language                       : English
Encoded date                   : 2023-06-02 14:20:29 UTC
Tagged date                    : 2023-06-02 14:20:29 UTC

Other
ID                             : 3
Type                           : Time code
Format                         : QuickTime TC
Duration                       : 3 min 20 s
Frame rate                     : 25.000 FPS
Time code of first frame       : 00:00:00:00
Time code of last frame        : 00:03:20:05
Time code, stripped            : Yes
Language                       : English
Encoded date                   : 2023-06-02 14:20:29 UTC
Tagged date                    : 2023-06-02 14:20:29 UTC

</pre>
</div></div>
</div><div style="text-align: left"><br>
<div class="bbCodeBlock bbCodeVfcHH HiddenContent">
<div class="attribution type">Hidden Content:</div>
<blockquote>You must either reply or click 'Like' to see the hidden information contained here.</blockquote>
</div></div>
<div class="messageTextEndMarker">&nbsp;</div>
</blockquote>
</article>]]></description>
                <author><![CDATA[honeymooon]]></author>
                </item>

                </channel></rss>